<?xml version="1.0" encoding="utf-8"?><svg xml:space="preserve" viewBox="0 0 128 128" y="0px" x="0px" xmlns:xlink="http://www.w3.org/1999/xlink" xmlns="http://www.w3.org/2000/svg" id="圖層_1" version="1.1" width="200px" height="200px" style="width:100%;height:100%;background-size:initial;background-repeat-y:initial;background-repeat-x:initial;background-position-y:initial;background-position-x:initial;background-origin:initial;background-color:initial;background-clip:initial;background-attachment:initial;animation-play-state:paused" ><g class="ldl-scale" style="transform-origin:50% 50%;transform:rotate(0deg) scale(0.8, 0.8);animation-play-state:paused" ><style type="text/css" style="animation-play-state:paused" >.st0{fill:none}.st1,.st2,.st3{fill:#c69c6d;stroke:#000;stroke-width:3;stroke-linecap:round;stroke-linejoin:round;stroke-miterlimit:10}.st2,.st3{fill:#a67c52}.st3{fill:#f2f2f2}</style>
<path d="z" class="st0" style="animation-play-state:paused" ></path>
<g style="animation-play-state:paused" ><path d="M77.7,39.6c-0.4-0.5-0.8-1-1.3-1.4l7.8-7c2.6,2.8,6.8,2.9,9.6,0.5c2.8-2.6,2.9-6.8,0.5-9.6 c-1.3-1.4-2.8-2-4.6-2.2c0-1.7-0.5-3.3-1.8-4.7c-2.6-2.8-6.8-2.9-9.6-0.5c-2.8,2.6-2.9,6.8-0.5,9.6c0.4,0.4,0.8,0.8,1.3,1L71,32.5 c-0.4-0.8-0.9-1.5-1.7-2.3c-5.6-5.6-19.5-3.6-26.8,4.1c-6.8,7.2-9.5,20.6-1.4,29.4s21.8,7.4,29.4,1.4 C78.8,58.9,82.6,46.2,77.7,39.6z" class="st1" style="fill:rgb(198, 156, 109);animation-play-state:paused" ></path>
<path d="M97.9,66.8c1.2,5.6,4.5,22.1-4.9,31.2c-3.5,3.3-7.6,4.4-15.6,6.4c-10.8,2.7-19.8,1.8-24.2,1.4 c-3.6-0.4-7.4-1-11.4-2c-11.5-2.9-17.2-4.5-21.4-9.7C9.9,80.9,17,53,34.3,41.1c9.3-6.4,19.1-6.7,23-6.7c3.1,0,20.9-0.3,32.3,13.3 C95.5,54.7,96.9,62,97.9,66.8z" class="st2" style="fill:rgb(166, 124, 82);animation-play-state:paused" ></path>
<path d="M99.3,75.9c0.6,1.7,2.4,7.4,1.9,15.1c-0.3,3.7-0.9,6.3-1.8,9.5c-1.4,5.1-6.1,6.4-11.6,6.4 c-3.7,0-21.4,1.8-27.5,1.9c-10.2,0.4-29.8,1-37.1-9.9c-3.5-5.2-3.2-11.1-2.4-16.5c0.8-5.2,2.2-20.1,14.7-26.6 c6.1-3.2,13.8-5.1,22.7-5.1c12.2,0,24.3,3.5,37.1,16.8C96.4,69.4,97.9,72.3,99.3,75.9z" class="st1" style="fill:rgb(198, 156, 109);animation-play-state:paused" ></path>
<path d="M96.4,54.3c-0.3-0.5-0.6-1-1-1.5l8.6-6.1c2.2,3.1,6.4,3.8,9.5,1.7c3.1-2.2,3.8-6.4,1.7-9.5 c-1-1.5-2.6-2.4-4.2-2.7c0.3-1.7-0.1-3.5-1.2-4.9c-2.2-3.1-6.4-3.8-9.5-1.7S96.4,36,98.6,39c0.4,0.5,0.8,0.9,1.2,1.2l-8.8,6.3 c-0.3-0.9-0.8-1.7-1.4-2.4c-5-6.3-18.8-6-27,0.8c-7.6,6.3-11.9,19.3-4.9,29.1c6.9,9.7,20.6,10,29.1,4.9S100.4,61.4,96.4,54.3z" class="st1" style="fill:rgb(198, 156, 109);animation-play-state:paused" ></path></g>
<g style="animation-play-state:paused" ><path d="M102.5,96.5H15.1c-1.8,0-3.3-1.4-3.3-3.3l0,0c0-1.8,1.4-3.3,3.3-3.3h87.4c1.8,0,3.3,1.4,3.3,3.3l0,0 C105.9,95,104.3,96.5,102.5,96.5z" class="st3" style="fill:rgb(242, 242, 242);animation-play-state:paused" ></path>
<path d="M89.6,115.2h-62c-5.2,0-9.6-4.2-9.6-9.6v-9.2h81v9.2C99.2,111,94.8,115.2,89.6,115.2z" class="st3" style="fill:rgb(242, 242, 242);animation-play-state:paused" ></path></g>
<path d="z" class="st0" style="animation-play-state:paused" ></path>
<metadata xmlns:d="https://loading.io/stock/" style="animation-play-state:paused" ><d:name style="animation-play-state:paused" >christmas dinner</d:name>


<d:tags style="animation-play-state:paused" >christmas dinner,party,chicken,meals,cook</d:tags>


<d:license style="animation-play-state:paused" >by</d:license>


<d:slug style="animation-play-state:paused" >aa9bi5</d:slug></metadata></g><!-- generated by https://loading.io/ --></svg>